<svg width="390" height="33" viewBox="0 0 390 33" fill="none" xmlns="http://www.w3.org/2000/svg">
<path d="M16.5568 12C16.4811 11.053 16.1259 10.3144 15.4915 9.78409C14.8665 9.25379 13.9148 8.98864 12.6364 8.98864C11.822 8.98864 11.1544 9.08807 10.6335 9.28693C10.1222 9.47633 9.74337 9.73674 9.49716 10.0682C9.25095 10.3996 9.12311 10.7784 9.11364 11.2045C9.0947 11.5549 9.15625 11.8722 9.2983 12.1562C9.44981 12.4309 9.68655 12.6818 10.0085 12.9091C10.3305 13.1269 10.7424 13.3258 11.2443 13.5057C11.7462 13.6856 12.3428 13.8466 13.0341 13.9886L15.4205 14.5C17.0303 14.8409 18.4081 15.2907 19.554 15.8494C20.6998 16.4081 21.6373 17.0663 22.3665 17.8239C23.0956 18.572 23.6307 19.4148 23.9716 20.3523C24.322 21.2898 24.5019 22.3125 24.5114 23.4205C24.5019 25.3333 24.0237 26.9527 23.0767 28.2784C22.1297 29.6042 20.7756 30.6127 19.0142 31.304C17.2623 31.9953 15.1553 32.3409 12.6932 32.3409C10.1648 32.3409 7.95833 31.9669 6.07386 31.2188C4.19886 30.4706 2.74053 29.3201 1.69886 27.767C0.666667 26.2045 0.145833 24.2064 0.136364 21.7727H7.63636C7.68371 22.6629 7.90625 23.411 8.30398 24.017C8.7017 24.6231 9.26042 25.0824 9.98011 25.3949C10.7093 25.7074 11.5758 25.8636 12.5795 25.8636C13.4223 25.8636 14.1278 25.7595 14.696 25.5511C15.2642 25.3428 15.6951 25.054 15.9886 24.6847C16.2822 24.3153 16.4337 23.8939 16.4432 23.4205C16.4337 22.9754 16.2869 22.5871 16.0028 22.2557C15.7282 21.9148 15.2737 21.6117 14.6392 21.3466C14.0047 21.072 13.1477 20.8163 12.0682 20.5795L9.17045 19.9545C6.5947 19.3958 4.56345 18.4631 3.0767 17.1562C1.59943 15.84 0.86553 14.0455 0.875 11.7727C0.86553 9.92614 1.35795 8.31155 2.35227 6.92898C3.35606 5.53693 4.74337 4.45265 6.5142 3.67614C8.29451 2.89962 10.3352 2.51136 12.6364 2.51136C14.9848 2.51136 17.0161 2.90436 18.7301 3.69034C20.4441 4.47633 21.7652 5.58428 22.6932 7.0142C23.6307 8.43466 24.1042 10.0966 24.1136 12H16.5568ZM27.6293 32V10.1818H35.4702V32H27.6293ZM31.5497 7.90909C30.4891 7.90909 29.58 7.55871 28.8224 6.85795C28.0649 6.1572 27.6861 5.31439 27.6861 4.32955C27.6861 3.3447 28.0649 2.50189 28.8224 1.80114C29.58 1.10038 30.4891 0.75 31.5497 0.75C32.6198 0.75 33.5289 1.10038 34.277 1.80114C35.0346 2.50189 35.4134 3.3447 35.4134 4.32955C35.4134 5.31439 35.0346 6.1572 34.277 6.85795C33.5289 7.55871 32.6198 7.90909 31.5497 7.90909ZM59.4084 17.2841H52.1925C52.1546 16.839 51.9983 16.4555 51.7237 16.1335C51.4491 15.8116 51.094 15.5653 50.6584 15.3949C50.2322 15.215 49.7588 15.125 49.2379 15.125C48.5656 15.125 47.9879 15.2481 47.505 15.4943C47.022 15.7405 46.7853 16.0909 46.7947 16.5455C46.7853 16.8674 46.9226 17.1657 47.2067 17.4403C47.5002 17.715 48.0637 17.928 48.897 18.0795L53.3288 18.875C55.5637 19.2822 57.2256 19.9687 58.3146 20.9347C59.4131 21.8911 59.9671 23.1742 59.9766 24.7841C59.9671 26.3371 59.5031 27.6866 58.5845 28.8324C57.6754 29.9687 56.4302 30.8494 54.8487 31.4744C53.2768 32.09 51.4822 32.3977 49.4652 32.3977C46.1319 32.3977 43.523 31.7159 41.6385 30.3523C39.7635 28.9886 38.7171 27.1894 38.4993 24.9545H46.2834C46.3875 25.6458 46.7285 26.1809 47.3061 26.5597C47.8932 26.929 48.6319 27.1136 49.522 27.1136C50.2417 27.1136 50.8336 26.9905 51.2976 26.7443C51.7711 26.4981 52.0125 26.1477 52.022 25.6932C52.0125 25.2765 51.8042 24.9451 51.397 24.6989C50.9993 24.4527 50.3743 24.2538 49.522 24.1023L45.6584 23.4205C43.433 23.0322 41.7663 22.2936 40.6584 21.2045C39.5504 20.1155 39.0012 18.714 39.0107 17C39.0012 15.4848 39.3989 14.2017 40.2038 13.1506C41.0182 12.09 42.1783 11.285 43.6839 10.7358C45.1991 10.1771 46.9936 9.89773 49.0675 9.89773C52.2209 9.89773 54.7067 10.5511 56.5249 11.858C58.3525 13.1648 59.3137 14.9735 59.4084 17.2841ZM75.9922 10.1818V15.8636H61.6172V10.1818H75.9922ZM64.4013 4.95455H72.2422V24.983C72.2422 25.286 72.2943 25.5417 72.3984 25.75C72.5026 25.9489 72.6636 26.1004 72.8814 26.2045C73.0992 26.2992 73.3786 26.3466 73.7195 26.3466C73.9562 26.3466 74.2308 26.3182 74.5433 26.2614C74.8653 26.2045 75.102 26.1572 75.2536 26.1193L76.3899 31.6307C76.0395 31.7348 75.5376 31.8627 74.8842 32.0142C74.2403 32.1657 73.4732 32.2652 72.5831 32.3125C70.7839 32.4072 69.2734 32.2225 68.0518 31.7585C66.8303 31.285 65.9117 30.5417 65.2962 29.5284C64.6806 28.5152 64.3823 27.2462 64.4013 25.7216V4.95455ZM89.4119 32.3977C87.0824 32.3977 85.0748 31.9527 83.3892 31.0625C81.7131 30.1629 80.4205 28.875 79.5114 27.1989C78.6117 25.5133 78.1619 23.4962 78.1619 21.1477C78.1619 18.8939 78.6165 16.9242 79.5256 15.2386C80.4347 13.553 81.7178 12.2415 83.375 11.304C85.0322 10.3665 86.9877 9.89773 89.2415 9.89773C90.8892 9.89773 92.3807 10.1534 93.7159 10.6648C95.0511 11.1761 96.1922 11.9195 97.1392 12.8949C98.0862 13.8608 98.8153 15.035 99.3267 16.4176C99.8381 17.8002 100.094 19.358 100.094 21.0909V22.9091H80.6051V18.5909H92.8778C92.8684 17.9659 92.7074 17.4167 92.3949 16.9432C92.0919 16.4602 91.6799 16.0862 91.1591 15.821C90.6477 15.5464 90.0653 15.4091 89.4119 15.4091C88.7775 15.4091 88.1951 15.5464 87.6648 15.821C87.1345 16.0862 86.7083 16.4555 86.3864 16.929C86.0739 17.4025 85.9081 17.9564 85.8892 18.5909V23.25C85.8892 23.9508 86.036 24.5758 86.3295 25.125C86.6231 25.6742 87.0445 26.1051 87.5938 26.4176C88.143 26.7301 88.8059 26.8864 89.5824 26.8864C90.1222 26.8864 90.6146 26.8106 91.0597 26.6591C91.5142 26.5076 91.9025 26.2898 92.2244 26.0057C92.5464 25.7121 92.7831 25.3617 92.9347 24.9545H100.094C99.8475 26.4697 99.2652 27.786 98.3466 28.9034C97.428 30.0114 96.2112 30.8731 94.696 31.4886C93.1903 32.0947 91.429 32.3977 89.4119 32.3977ZM103.293 32V10.1818H110.737V14.3295H110.964C111.418 12.9659 112.195 11.8864 113.293 11.0909C114.392 10.2955 115.699 9.89773 117.214 9.89773C118.748 9.89773 120.069 10.3049 121.177 11.1193C122.285 11.9242 122.952 12.9943 123.18 14.3295H123.407C123.776 12.9943 124.562 11.9242 125.765 11.1193C126.968 10.3049 128.379 9.89773 129.998 9.89773C132.091 9.89773 133.786 10.5701 135.083 11.9148C136.39 13.2595 137.043 15.0492 137.043 17.2841V32H129.202V19.2727C129.202 18.3163 128.961 17.5682 128.478 17.0284C127.995 16.4792 127.346 16.2045 126.532 16.2045C125.727 16.2045 125.088 16.4792 124.614 17.0284C124.15 17.5682 123.918 18.3163 123.918 19.2727V32H116.418V19.2727C116.418 18.3163 116.177 17.5682 115.694 17.0284C115.211 16.4792 114.562 16.2045 113.748 16.2045C113.208 16.2045 112.744 16.3277 112.356 16.5739C111.968 16.8201 111.665 17.1752 111.447 17.6392C111.238 18.0937 111.134 18.6383 111.134 19.2727V32H103.293ZM146.99 32.3409C145.598 32.3409 144.367 32.1136 143.297 31.6591C142.236 31.1951 141.403 30.4943 140.797 29.5568C140.191 28.6193 139.888 27.4261 139.888 25.9773C139.888 24.7841 140.091 23.7661 140.499 22.9233C140.906 22.071 141.474 21.375 142.203 20.8352C142.932 20.2955 143.78 19.8835 144.746 19.5994C145.721 19.3153 146.772 19.1307 147.899 19.0455C149.121 18.9508 150.101 18.8371 150.839 18.7045C151.588 18.5625 152.127 18.3684 152.459 18.1222C152.79 17.8665 152.956 17.5303 152.956 17.1136V17.0568C152.956 16.4886 152.738 16.053 152.303 15.75C151.867 15.447 151.308 15.2955 150.626 15.2955C149.878 15.2955 149.268 15.4612 148.794 15.7926C148.33 16.1146 148.051 16.6117 147.956 17.2841H140.74C140.835 15.9583 141.256 14.7367 142.004 13.6193C142.762 12.4924 143.865 11.5928 145.314 10.9205C146.763 10.2386 148.571 9.89773 150.74 9.89773C152.303 9.89773 153.704 10.0824 154.945 10.4517C156.185 10.8116 157.241 11.3182 158.112 11.9716C158.983 12.6155 159.646 13.3731 160.101 14.2443C160.565 15.1061 160.797 16.0436 160.797 17.0568V32H153.467V28.9318H153.297C152.861 29.7462 152.331 30.4044 151.706 30.9062C151.09 31.4081 150.385 31.7727 149.589 32C148.804 32.2273 147.937 32.3409 146.99 32.3409ZM149.547 27.3977C150.143 27.3977 150.702 27.2746 151.223 27.0284C151.753 26.7822 152.184 26.4271 152.516 25.9631C152.847 25.4991 153.013 24.9356 153.013 24.2727V22.4545C152.804 22.5398 152.582 22.6203 152.345 22.696C152.118 22.7718 151.872 22.8428 151.607 22.9091C151.351 22.9754 151.076 23.0369 150.783 23.0938C150.499 23.1506 150.2 23.2027 149.888 23.25C149.282 23.3447 148.785 23.5009 148.396 23.7188C148.018 23.9271 147.733 24.1875 147.544 24.5C147.364 24.803 147.274 25.1439 147.274 25.5227C147.274 26.1288 147.487 26.5928 147.913 26.9148C148.339 27.2367 148.884 27.3977 149.547 27.3977ZM180.41 32.2841C178.857 32.2841 177.427 31.8769 176.12 31.0625C174.823 30.2481 173.781 29.0123 172.995 27.3551C172.219 25.6979 171.83 23.6098 171.83 21.0909C171.83 18.4583 172.237 16.3182 173.052 14.6705C173.876 13.0227 174.936 11.8153 176.234 11.0483C177.54 10.2812 178.914 9.89773 180.353 9.89773C181.433 9.89773 182.379 10.0871 183.194 10.4659C184.008 10.8352 184.69 11.3324 185.239 11.9574C185.789 12.5729 186.205 13.25 186.489 13.9886H186.603V2.90909H194.444V32H186.66V28.4205H186.489C186.186 29.1591 185.751 29.822 185.183 30.4091C184.624 30.9867 183.942 31.446 183.137 31.7869C182.342 32.1184 181.433 32.2841 180.41 32.2841ZM183.308 26.2614C184.027 26.2614 184.643 26.053 185.154 25.6364C185.675 25.2102 186.073 24.6136 186.347 23.8466C186.631 23.0701 186.773 22.1515 186.773 21.0909C186.773 20.0114 186.631 19.0881 186.347 18.321C186.073 17.5445 185.675 16.9527 185.154 16.5455C184.643 16.1288 184.027 15.9205 183.308 15.9205C182.588 15.9205 181.972 16.1288 181.461 16.5455C180.959 16.9527 180.571 17.5445 180.296 18.321C180.031 19.0881 179.898 20.0114 179.898 21.0909C179.898 22.1705 180.031 23.0985 180.296 23.875C180.571 24.642 180.959 25.2339 181.461 25.6506C181.972 26.0578 182.588 26.2614 183.308 26.2614ZM208.748 32.3977C206.418 32.3977 204.411 31.9527 202.725 31.0625C201.049 30.1629 199.756 28.875 198.847 27.1989C197.948 25.5133 197.498 23.4962 197.498 21.1477C197.498 18.8939 197.952 16.9242 198.862 15.2386C199.771 13.553 201.054 12.2415 202.711 11.304C204.368 10.3665 206.324 9.89773 208.577 9.89773C210.225 9.89773 211.717 10.1534 213.052 10.6648C214.387 11.1761 215.528 11.9195 216.475 12.8949C217.422 13.8608 218.151 15.035 218.663 16.4176C219.174 17.8002 219.43 19.358 219.43 21.0909V22.9091H199.941V18.5909H212.214C212.204 17.9659 212.043 17.4167 211.731 16.9432C211.428 16.4602 211.016 16.0862 210.495 15.821C209.984 15.5464 209.401 15.4091 208.748 15.4091C208.113 15.4091 207.531 15.5464 207.001 15.821C206.47 16.0862 206.044 16.4555 205.722 16.929C205.41 17.4025 205.244 17.9564 205.225 18.5909V23.25C205.225 23.9508 205.372 24.5758 205.665 25.125C205.959 25.6742 206.38 26.1051 206.93 26.4176C207.479 26.7301 208.142 26.8864 208.918 26.8864C209.458 26.8864 209.951 26.8106 210.396 26.6591C210.85 26.5076 211.238 26.2898 211.56 26.0057C211.882 25.7121 212.119 25.3617 212.271 24.9545H219.43C219.183 26.4697 218.601 27.786 217.683 28.9034C216.764 30.0114 215.547 30.8731 214.032 31.4886C212.526 32.0947 210.765 32.3977 208.748 32.3977ZM230.484 32V2.90909H243.041C245.2 2.90909 247.089 3.33523 248.709 4.1875C250.328 5.03977 251.588 6.23769 252.487 7.78125C253.387 9.32481 253.837 11.1288 253.837 13.1932C253.837 15.2765 253.373 17.0805 252.445 18.6051C251.526 20.1297 250.233 21.304 248.567 22.1278C246.91 22.9517 244.973 23.3636 242.757 23.3636H235.257V17.2273H241.166C242.094 17.2273 242.885 17.0663 243.538 16.7443C244.201 16.4129 244.708 15.9441 245.058 15.3381C245.418 14.732 245.598 14.017 245.598 13.1932C245.598 12.3598 245.418 11.6496 245.058 11.0625C244.708 10.4659 244.201 10.0114 243.538 9.69886C242.885 9.37689 242.094 9.21591 241.166 9.21591H238.382V32H230.484ZM266.834 32.3977C264.504 32.3977 262.497 31.9527 260.811 31.0625C259.135 30.1629 257.842 28.875 256.933 27.1989C256.034 25.5133 255.584 23.4962 255.584 21.1477C255.584 18.8939 256.038 16.9242 256.947 15.2386C257.857 13.553 259.14 12.2415 260.797 11.304C262.454 10.3665 264.41 9.89773 266.663 9.89773C268.311 9.89773 269.803 10.1534 271.138 10.6648C272.473 11.1761 273.614 11.9195 274.561 12.8949C275.508 13.8608 276.237 15.035 276.749 16.4176C277.26 17.8002 277.516 19.358 277.516 21.0909V22.9091H258.027V18.5909H270.3C270.29 17.9659 270.129 17.4167 269.817 16.9432C269.514 16.4602 269.102 16.0862 268.581 15.821C268.07 15.5464 267.487 15.4091 266.834 15.4091C266.199 15.4091 265.617 15.5464 265.087 15.821C264.556 16.0862 264.13 16.4555 263.808 16.929C263.496 17.4025 263.33 17.9564 263.311 18.5909V23.25C263.311 23.9508 263.458 24.5758 263.751 25.125C264.045 25.6742 264.466 26.1051 265.016 26.4176C265.565 26.7301 266.228 26.8864 267.004 26.8864C267.544 26.8864 268.036 26.8106 268.482 26.6591C268.936 26.5076 269.324 26.2898 269.646 26.0057C269.968 25.7121 270.205 25.3617 270.357 24.9545H277.516C277.269 26.4697 276.687 27.786 275.768 28.9034C274.85 30.0114 273.633 30.8731 272.118 31.4886C270.612 32.0947 268.851 32.3977 266.834 32.3977ZM288.613 32.2841C287.06 32.2841 285.63 31.8769 284.323 31.0625C283.026 30.2481 281.984 29.0123 281.198 27.3551C280.422 25.6979 280.033 23.6098 280.033 21.0909C280.033 18.4583 280.441 16.3182 281.255 14.6705C282.079 13.0227 283.139 11.8153 284.437 11.0483C285.744 10.2812 287.117 9.89773 288.556 9.89773C289.636 9.89773 290.583 10.0871 291.397 10.4659C292.211 10.8352 292.893 11.3324 293.442 11.9574C293.992 12.5729 294.408 13.25 294.692 13.9886H294.806V2.90909H302.647V32H294.863V28.4205H294.692C294.389 29.1591 293.954 29.822 293.386 30.4091C292.827 30.9867 292.145 31.446 291.34 31.7869C290.545 32.1184 289.636 32.2841 288.613 32.2841ZM291.511 26.2614C292.23 26.2614 292.846 26.053 293.357 25.6364C293.878 25.2102 294.276 24.6136 294.55 23.8466C294.835 23.0701 294.977 22.1515 294.977 21.0909C294.977 20.0114 294.835 19.0881 294.55 18.321C294.276 17.5445 293.878 16.9527 293.357 16.5455C292.846 16.1288 292.23 15.9205 291.511 15.9205C290.791 15.9205 290.175 16.1288 289.664 16.5455C289.162 16.9527 288.774 17.5445 288.499 18.321C288.234 19.0881 288.102 20.0114 288.102 21.0909C288.102 22.1705 288.234 23.0985 288.499 23.875C288.774 24.642 289.162 25.2339 289.664 25.6506C290.175 26.0578 290.791 26.2614 291.511 26.2614ZM306.496 32V10.1818H314.337V32H306.496ZM310.417 7.90909C309.356 7.90909 308.447 7.55871 307.69 6.85795C306.932 6.1572 306.553 5.31439 306.553 4.32955C306.553 3.3447 306.932 2.50189 307.69 1.80114C308.447 1.10038 309.356 0.75 310.417 0.75C311.487 0.75 312.396 1.10038 313.144 1.80114C313.902 2.50189 314.281 3.3447 314.281 4.32955C314.281 5.31439 313.902 6.1572 313.144 6.85795C312.396 7.55871 311.487 7.90909 310.417 7.90909ZM326.23 32.2841C324.677 32.2841 323.247 31.8769 321.94 31.0625C320.643 30.2481 319.601 29.0123 318.815 27.3551C318.039 25.6979 317.651 23.6098 317.651 21.0909C317.651 18.4583 318.058 16.3182 318.872 14.6705C319.696 13.0227 320.757 11.8153 322.054 11.0483C323.361 10.2812 324.734 9.89773 326.173 9.89773C327.253 9.89773 328.2 10.0871 329.014 10.4659C329.829 10.8352 330.51 11.3324 331.06 11.9574C331.609 12.5729 332.026 13.25 332.31 13.9886H332.423V2.90909H340.264V32H332.48V28.4205H332.31C332.007 29.1591 331.571 29.822 331.003 30.4091C330.444 30.9867 329.762 31.446 328.957 31.7869C328.162 32.1184 327.253 32.2841 326.23 32.2841ZM329.128 26.2614C329.848 26.2614 330.463 26.053 330.974 25.6364C331.495 25.2102 331.893 24.6136 332.168 23.8466C332.452 23.0701 332.594 22.1515 332.594 21.0909C332.594 20.0114 332.452 19.0881 332.168 18.321C331.893 17.5445 331.495 16.9527 330.974 16.5455C330.463 16.1288 329.848 15.9205 329.128 15.9205C328.408 15.9205 327.793 16.1288 327.281 16.5455C326.779 16.9527 326.391 17.5445 326.116 18.321C325.851 19.0881 325.719 20.0114 325.719 21.0909C325.719 22.1705 325.851 23.0985 326.116 23.875C326.391 24.642 326.779 25.2339 327.281 25.6506C327.793 26.0578 328.408 26.2614 329.128 26.2614ZM354.625 32.3977C352.258 32.3977 350.231 31.929 348.545 30.9915C346.86 30.0445 345.567 28.7282 344.668 27.0426C343.768 25.3475 343.318 23.3826 343.318 21.1477C343.318 18.9129 343.768 16.9527 344.668 15.267C345.567 13.572 346.86 12.2557 348.545 11.3182C350.231 10.3712 352.258 9.89773 354.625 9.89773C356.992 9.89773 359.019 10.3712 360.705 11.3182C362.39 12.2557 363.683 13.572 364.582 15.267C365.482 16.9527 365.932 18.9129 365.932 21.1477C365.932 23.3826 365.482 25.3475 364.582 27.0426C363.683 28.7282 362.39 30.0445 360.705 30.9915C359.019 31.929 356.992 32.3977 354.625 32.3977ZM354.682 26.6023C355.345 26.6023 355.918 26.3797 356.401 25.9347C356.884 25.4896 357.258 24.8551 357.523 24.0312C357.788 23.2074 357.92 22.2273 357.92 21.0909C357.92 19.9451 357.788 18.965 357.523 18.1506C357.258 17.3267 356.884 16.6922 356.401 16.2472C355.918 15.8021 355.345 15.5795 354.682 15.5795C353.981 15.5795 353.38 15.8021 352.878 16.2472C352.376 16.6922 351.992 17.3267 351.727 18.1506C351.462 18.965 351.33 19.9451 351.33 21.0909C351.33 22.2273 351.462 23.2074 351.727 24.0312C351.992 24.8551 352.376 25.4896 352.878 25.9347C353.38 26.3797 353.981 26.6023 354.682 26.6023ZM389.057 17.2841H381.841C381.803 16.839 381.647 16.4555 381.372 16.1335C381.098 15.8116 380.742 15.5653 380.307 15.3949C379.881 15.215 379.407 15.125 378.886 15.125C378.214 15.125 377.636 15.2481 377.153 15.4943C376.67 15.7405 376.434 16.0909 376.443 16.5455C376.434 16.8674 376.571 17.1657 376.855 17.4403C377.149 17.715 377.712 17.928 378.545 18.0795L382.977 18.875C385.212 19.2822 386.874 19.9687 387.963 20.9347C389.062 21.8911 389.616 23.1742 389.625 24.7841C389.616 26.3371 389.152 27.6866 388.233 28.8324C387.324 29.9687 386.079 30.8494 384.497 31.4744C382.925 32.09 381.131 32.3977 379.114 32.3977C375.78 32.3977 373.171 31.7159 371.287 30.3523C369.412 28.9886 368.366 27.1894 368.148 24.9545H375.932C376.036 25.6458 376.377 26.1809 376.955 26.5597C377.542 26.929 378.28 27.1136 379.17 27.1136C379.89 27.1136 380.482 26.9905 380.946 26.7443C381.42 26.4981 381.661 26.1477 381.67 25.6932C381.661 25.2765 381.453 24.9451 381.045 24.6989C380.648 24.4527 380.023 24.2538 379.17 24.1023L375.307 23.4205C373.081 23.0322 371.415 22.2936 370.307 21.2045C369.199 20.1155 368.65 18.714 368.659 17C368.65 15.4848 369.047 14.2017 369.852 13.1506C370.667 12.09 371.827 11.285 373.332 10.7358C374.848 10.1771 376.642 9.89773 378.716 9.89773C381.869 9.89773 384.355 10.5511 386.173 11.858C388.001 13.1648 388.962 14.9735 389.057 17.2841Z" fill="#4EA8DE"/>
</svg>
